<mxfile host="app.diagrams.net" modified="2020-12-23T19:43:26.998Z" agent="5.0 (Windows NT 10.0; WOW64) AppleWebKit/537.36 (KHTML, like Gecko) coc_coc_browser/91.0.146 Chrome/85.0.4183.146 Safari/537.36" etag="29VHJK_vTR-SsaDNcUAN" version="14.1.2" type="github">
  <diagram id="Hzqx6-v4QndU5kxoNWGl" name="Page-1">
    <mxGraphModel dx="738" dy="386" grid="0" gridSize="10" guides="1" tooltips="1" connect="1" arrows="1" fold="1" page="1" pageScale="1" pageWidth="850" pageHeight="1100" math="0" shadow="0">
      <root>
        <mxCell id="0" />
        <mxCell id="1" parent="0" />
        <mxCell id="hpCoTRbKi9ophA4lZSKu-1" value="&lt;font style=&quot;font-size: 15px&quot;&gt;&lt;span style=&quot;color: rgb(0 , 0 , 0) ; font-family: &amp;#34;roboto&amp;#34; , &amp;#34;robotodraft&amp;#34; , &amp;#34;helvetica&amp;#34; , &amp;#34;arial&amp;#34; , sans-serif ; font-style: normal ; font-weight: 400 ; letter-spacing: normal ; text-indent: 0px ; text-transform: none ; word-spacing: 0px ; display: inline ; float: none ; background-color: rgb(255 , 255 , 255)&quot;&gt;Программное обеспечение для учета качества&lt;/span&gt;&lt;br&gt;&lt;/font&gt;" style="rounded=0;whiteSpace=wrap;html=1;shadow=0;sketch=0;glass=0;fillColor=#f5f5f5;strokeColor=#666666;fontColor=#333333;" vertex="1" parent="1">
          <mxGeometry x="305" y="57" width="163" height="65" as="geometry" />
        </mxCell>
        <mxCell id="hpCoTRbKi9ophA4lZSKu-3" value="Фактор" style="swimlane;fontStyle=0;childLayout=stackLayout;horizontal=1;startSize=26;fillColor=#f5f5f5;horizontalStack=0;resizeParent=1;resizeParentMax=0;resizeLast=0;collapsible=1;marginBottom=0;rounded=0;shadow=0;glass=0;sketch=0;strokeColor=#666666;fontColor=#333333;" vertex="1" parent="1">
          <mxGeometry x="109" y="160" width="140" height="52" as="geometry" />
        </mxCell>
        <mxCell id="hpCoTRbKi9ophA4lZSKu-4" value="прямые измерения" style="text;strokeColor=none;fillColor=none;align=center;verticalAlign=top;spacingLeft=4;spacingRight=4;overflow=hidden;rotatable=0;points=[[0,0.5],[1,0.5]];portConstraint=eastwest;" vertex="1" parent="hpCoTRbKi9ophA4lZSKu-3">
          <mxGeometry y="26" width="140" height="26" as="geometry" />
        </mxCell>
        <mxCell id="hpCoTRbKi9ophA4lZSKu-7" value="Фактор" style="swimlane;fontStyle=0;childLayout=stackLayout;horizontal=1;startSize=26;fillColor=#f5f5f5;horizontalStack=0;resizeParent=1;resizeParentMax=0;resizeLast=0;collapsible=1;marginBottom=0;rounded=0;shadow=0;glass=0;sketch=0;strokeColor=#666666;fontColor=#333333;" vertex="1" parent="1">
          <mxGeometry x="317" y="160" width="140" height="52" as="geometry" />
        </mxCell>
        <mxCell id="hpCoTRbKi9ophA4lZSKu-8" value="прямые измерения" style="text;strokeColor=none;fillColor=none;align=center;verticalAlign=top;spacingLeft=4;spacingRight=4;overflow=hidden;rotatable=0;points=[[0,0.5],[1,0.5]];portConstraint=eastwest;" vertex="1" parent="hpCoTRbKi9ophA4lZSKu-7">
          <mxGeometry y="26" width="140" height="26" as="geometry" />
        </mxCell>
        <mxCell id="hpCoTRbKi9ophA4lZSKu-9" value="Фактор" style="swimlane;fontStyle=0;childLayout=stackLayout;horizontal=1;startSize=26;fillColor=#f5f5f5;horizontalStack=0;resizeParent=1;resizeParentMax=0;resizeLast=0;collapsible=1;marginBottom=0;rounded=0;shadow=0;glass=0;sketch=0;strokeColor=#666666;fontColor=#333333;" vertex="1" parent="1">
          <mxGeometry x="532" y="160" width="140" height="52" as="geometry" />
        </mxCell>
        <mxCell id="hpCoTRbKi9ophA4lZSKu-10" value="прямые измерения" style="text;strokeColor=none;fillColor=none;align=center;verticalAlign=top;spacingLeft=4;spacingRight=4;overflow=hidden;rotatable=0;points=[[0,0.5],[1,0.5]];portConstraint=eastwest;" vertex="1" parent="hpCoTRbKi9ophA4lZSKu-9">
          <mxGeometry y="26" width="140" height="26" as="geometry" />
        </mxCell>
        <mxCell id="hpCoTRbKi9ophA4lZSKu-11" value="детский фактор" style="rounded=0;whiteSpace=wrap;html=1;shadow=0;glass=0;sketch=0;" vertex="1" parent="1">
          <mxGeometry x="147" y="249" width="93" height="43" as="geometry" />
        </mxCell>
        <mxCell id="hpCoTRbKi9ophA4lZSKu-13" value="детский фактор" style="rounded=0;whiteSpace=wrap;html=1;shadow=0;glass=0;sketch=0;fillColor=#f5f5f5;strokeColor=#666666;fontColor=#333333;" vertex="1" parent="1">
          <mxGeometry x="339" y="249" width="93" height="43" as="geometry" />
        </mxCell>
        <mxCell id="hpCoTRbKi9ophA4lZSKu-14" value="детский фактор" style="rounded=0;whiteSpace=wrap;html=1;shadow=0;glass=0;sketch=0;fillColor=#f5f5f5;strokeColor=#666666;fontColor=#333333;" vertex="1" parent="1">
          <mxGeometry x="546" y="248" width="93" height="43" as="geometry" />
        </mxCell>
        <mxCell id="hpCoTRbKi9ophA4lZSKu-16" value="Измерение" style="rounded=0;whiteSpace=wrap;html=1;shadow=0;glass=0;dashed=1;sketch=0;fillColor=#f5f5f5;strokeColor=#666666;fontColor=#333333;" vertex="1" parent="1">
          <mxGeometry x="347" y="318" width="77" height="37" as="geometry" />
        </mxCell>
        <mxCell id="hpCoTRbKi9ophA4lZSKu-17" value="Измерение" style="rounded=0;whiteSpace=wrap;html=1;shadow=0;glass=0;dashed=1;sketch=0;fillColor=#f5f5f5;strokeColor=#666666;fontColor=#333333;" vertex="1" parent="1">
          <mxGeometry x="228" y="318" width="77" height="37" as="geometry" />
        </mxCell>
        <mxCell id="hpCoTRbKi9ophA4lZSKu-18" value="Измерение" style="rounded=0;whiteSpace=wrap;html=1;shadow=0;glass=0;dashed=1;sketch=0;fillColor=#f5f5f5;strokeColor=#666666;fontColor=#333333;" vertex="1" parent="1">
          <mxGeometry x="466" y="318" width="77" height="37" as="geometry" />
        </mxCell>
        <mxCell id="hpCoTRbKi9ophA4lZSKu-19" value="" style="endArrow=none;html=1;entryX=0.5;entryY=1;entryDx=0;entryDy=0;" edge="1" parent="1" target="hpCoTRbKi9ophA4lZSKu-1">
          <mxGeometry width="50" height="50" relative="1" as="geometry">
            <mxPoint x="387" y="138" as="sourcePoint" />
            <mxPoint x="403" y="213" as="targetPoint" />
          </mxGeometry>
        </mxCell>
        <mxCell id="hpCoTRbKi9ophA4lZSKu-20" value="" style="endArrow=none;html=1;entryX=1;entryY=1;entryDx=0;entryDy=0;exitX=0;exitY=0;exitDx=0;exitDy=0;" edge="1" parent="1" source="hpCoTRbKi9ophA4lZSKu-9" target="hpCoTRbKi9ophA4lZSKu-1">
          <mxGeometry width="50" height="50" relative="1" as="geometry">
            <mxPoint x="353" y="263" as="sourcePoint" />
            <mxPoint x="403" y="213" as="targetPoint" />
          </mxGeometry>
        </mxCell>
        <mxCell id="hpCoTRbKi9ophA4lZSKu-21" value="" style="endArrow=none;html=1;entryX=0;entryY=1;entryDx=0;entryDy=0;exitX=1;exitY=0;exitDx=0;exitDy=0;" edge="1" parent="1" source="hpCoTRbKi9ophA4lZSKu-3" target="hpCoTRbKi9ophA4lZSKu-1">
          <mxGeometry width="50" height="50" relative="1" as="geometry">
            <mxPoint x="353" y="263" as="sourcePoint" />
            <mxPoint x="403" y="213" as="targetPoint" />
          </mxGeometry>
        </mxCell>
        <mxCell id="hpCoTRbKi9ophA4lZSKu-22" value="" style="endArrow=none;html=1;entryX=1;entryY=0.25;entryDx=0;entryDy=0;dashed=1;strokeWidth=1;" edge="1" parent="1">
          <mxGeometry width="50" height="50" relative="1" as="geometry">
            <mxPoint x="171" y="248" as="sourcePoint" />
            <mxPoint x="249" y="180" as="targetPoint" />
            <Array as="points">
              <mxPoint x="171" y="231" />
              <mxPoint x="266" y="231" />
              <mxPoint x="266" y="180" />
            </Array>
          </mxGeometry>
        </mxCell>
        <mxCell id="hpCoTRbKi9ophA4lZSKu-23" value="" style="endArrow=none;html=1;entryX=1;entryY=0.25;entryDx=0;entryDy=0;exitX=0.25;exitY=0;exitDx=0;exitDy=0;dashed=1;" edge="1" parent="1" source="hpCoTRbKi9ophA4lZSKu-13" target="hpCoTRbKi9ophA4lZSKu-3">
          <mxGeometry width="50" height="50" relative="1" as="geometry">
            <mxPoint x="353" y="263" as="sourcePoint" />
            <mxPoint x="403" y="213" as="targetPoint" />
            <Array as="points">
              <mxPoint x="362" y="234" />
              <mxPoint x="275" y="234" />
              <mxPoint x="275" y="173" />
            </Array>
          </mxGeometry>
        </mxCell>
        <mxCell id="hpCoTRbKi9ophA4lZSKu-24" value="" style="endArrow=none;html=1;entryX=0.5;entryY=0;entryDx=0;entryDy=0;exitX=0;exitY=1;exitDx=0;exitDy=0;" edge="1" parent="1" source="hpCoTRbKi9ophA4lZSKu-13" target="hpCoTRbKi9ophA4lZSKu-17">
          <mxGeometry width="50" height="50" relative="1" as="geometry">
            <mxPoint x="353" y="263" as="sourcePoint" />
            <mxPoint x="403" y="213" as="targetPoint" />
          </mxGeometry>
        </mxCell>
        <mxCell id="hpCoTRbKi9ophA4lZSKu-25" value="" style="endArrow=none;html=1;entryX=0.5;entryY=0;entryDx=0;entryDy=0;" edge="1" parent="1" target="hpCoTRbKi9ophA4lZSKu-18">
          <mxGeometry width="50" height="50" relative="1" as="geometry">
            <mxPoint x="430" y="290" as="sourcePoint" />
            <mxPoint x="403" y="213" as="targetPoint" />
          </mxGeometry>
        </mxCell>
        <mxCell id="hpCoTRbKi9ophA4lZSKu-26" value="" style="endArrow=none;html=1;exitX=0.5;exitY=0;exitDx=0;exitDy=0;entryX=0.5;entryY=1;entryDx=0;entryDy=0;dashed=1;" edge="1" parent="1" source="hpCoTRbKi9ophA4lZSKu-16" target="hpCoTRbKi9ophA4lZSKu-13">
          <mxGeometry width="50" height="50" relative="1" as="geometry">
            <mxPoint x="353" y="263" as="sourcePoint" />
            <mxPoint x="403" y="213" as="targetPoint" />
          </mxGeometry>
        </mxCell>
        <mxCell id="hpCoTRbKi9ophA4lZSKu-27" value="" style="endArrow=none;dashed=1;html=1;dashPattern=1 3;strokeWidth=2;exitX=0.5;exitY=0;exitDx=0;exitDy=0;" edge="1" parent="1" source="hpCoTRbKi9ophA4lZSKu-7">
          <mxGeometry width="50" height="50" relative="1" as="geometry">
            <mxPoint x="387" y="155" as="sourcePoint" />
            <mxPoint x="387" y="138" as="targetPoint" />
          </mxGeometry>
        </mxCell>
        <mxCell id="hpCoTRbKi9ophA4lZSKu-28" value="" style="endArrow=none;dashed=1;html=1;dashPattern=1 3;strokeWidth=2;exitX=0.75;exitY=0;exitDx=0;exitDy=0;" edge="1" parent="1" source="hpCoTRbKi9ophA4lZSKu-13">
          <mxGeometry width="50" height="50" relative="1" as="geometry">
            <mxPoint x="353" y="263" as="sourcePoint" />
            <mxPoint x="531" y="173" as="targetPoint" />
            <Array as="points">
              <mxPoint x="409" y="236" />
              <mxPoint x="513" y="236" />
              <mxPoint x="513" y="173" />
            </Array>
          </mxGeometry>
        </mxCell>
        <mxCell id="hpCoTRbKi9ophA4lZSKu-29" value="" style="endArrow=none;dashed=1;html=1;dashPattern=1 3;strokeWidth=2;entryX=1;entryY=0.25;entryDx=0;entryDy=0;exitX=0.5;exitY=0;exitDx=0;exitDy=0;" edge="1" parent="1" source="hpCoTRbKi9ophA4lZSKu-14" target="hpCoTRbKi9ophA4lZSKu-9">
          <mxGeometry width="50" height="50" relative="1" as="geometry">
            <mxPoint x="353" y="263" as="sourcePoint" />
            <mxPoint x="403" y="213" as="targetPoint" />
            <Array as="points">
              <mxPoint x="593" y="234" />
              <mxPoint x="693" y="234" />
              <mxPoint x="693" y="173" />
            </Array>
          </mxGeometry>
        </mxCell>
      </root>
    </mxGraphModel>
  </diagram>
</mxfile>
